<svg xmlns="http://www.w3.org/2000/svg" width="336" height="240" viewBox="0 0 254.5 183.1"><path fill="#323232" d="M254.4 153.8a34 34 0 0 0-.7-3.4 22.7 22.7 0 0 0-10.6-13.3l-33.7-20-72.7-43.2c-.4-.2-.5-.4-.5-.9V62.8a15.7 15.7 0 0 0-2.4-8.4c-2.5-4.2-6.3-7-10.7-9.2a14.2 14.2 0 0 1-3.8-2.6c-3.5-3.2-4.6-7.3-4.3-11.9a12.9 12.9 0 0 1 2.9-7.8 14.5 14.5 0 0 1 14.4-4.9 13.4 13.4 0 0 1 11.3 12.6 12.8 12.8 0 0 0 1.3 5 7.3 7.3 0 0 0 8.9 4.1 10 10 0 0 0 7.1-9.3 27.1 27.1 0 0 0-2.2-10.5 31.1 31.1 0 0 0-16-16.9A34.3 34.3 0 0 0 124.6.2a29.1 29.1 0 0 0-14.7 6.1 34.9 34.9 0 0 0-9.6 13.2A31.4 31.4 0 0 0 97.5 30a26.3 26.3 0 0 0 .4 7.9 28.8 28.8 0 0 0 6.8 14.4 46.1 46.1 0 0 0 7.7 6.3 49.1 49.1 0 0 1 5.1 3.9 6.2 6.2 0 0 1 2.1 4.9 50.4 50.4 0 0 0 0 5.5 1.2 1.2 0 0 1-.7 1.1l-27 15.9-80.6 47.6a19.6 19.6 0 0 0-5.4 4.5C.7 148.4-.9 155.8.5 163.8c1.7 9.5 9.8 17.4 20.4 18.9l3.2.4h205.4l2.5-.2c6.5-.8 12.2-3.1 16.6-8.1a22.3 22.3 0 0 0 5.4-11.1 25.6 25.6 0 0 0 .5-2.7v-7.2zm-21.5 9.8a7.9 7.9 0 0 1-4.4 1.6H25.8a7.5 7.5 0 0 1-7.5-7.1 6.3 6.3 0 0 1 3.5-6.2l17.8-10.4 42.1-24.8 44.9-26.4a1.1 1.1 0 0 1 1.2 0l79.5 46.8 24.6 14.4a7.2 7.2 0 0 1 1 12.1z"/><path fill="#323232" d="M229.5 183.1l2.5-.2c6.5-.8 12.2-3.1 16.6-8.1a22.3 22.3 0 0 0 5.4-11.1 25.6 25.6 0 0 0 .5-2.7"/></svg>