<svg xmlns="http://www.w3.org/2000/svg" width="2.7in" height="2.7in" viewBox="0 0 196.8 193.9"><path fill="#323232" d="M59.2 132.2l-31.5-35c-6.9-7.6-15.5-8.4-22.3-2.4s-7.2 15.2-.2 23.1l62.5 69.5c7 7.8 16 8.6 22.9 2.2s6.8-14.8 0-22.4c-10.4-11.7-20.9-23.3-31.4-35zm133-55.5q-31.6-35.4-63.5-70.6c-6.7-7.4-15.7-8-22.4-2s-7 14.8-.3 22.4l31.5 35.1 32 35.5c6.6 7.2 15.1 7.9 21.8 2s7.4-15.1.9-22.4zM55.7 115.4l19.8 22 65.4-58.8c-6.9-7.5-13.3-14.8-19.8-22zM5.5 151.1c-6.2 4.8-7.1 8.6-2.6 13.9s11.4 13.1 17.4 19.4 9.1 4.8 14.5-.6c9.9 7.5 14.5 8.1 20.6 2.8L4.3 129.7c-5.6 7-5.4 11.3 1.2 21.4zM191.3 42.6c6.2-4.5 7.1-8.4 2.6-13.7s-11.4-13.1-17.4-19.4-8.9-4.9-14.7.6c-6-5-12.4-9.1-21.1-3.6l52.1 57.9c6.4-8.1 2.8-15-1.5-21.8z"/></svg>