<svg xmlns="http://www.w3.org/2000/svg"><symbol id="twitter" viewBox="0 0 336 336"><style>.st0{fill:#231f20}</style><path d="M336 168c0 92.8-75.2 168-168 168h-3.6C71.7 334-1.9 257.2.1 164.4S78.9-1.9 171.7.1C259.8 2 331.5 71.7 335.9 159.7c.1 2.6.1 5.5.1 8.3zm-55.8-54.5l-25.5 8.3 1.7-.9 1.1-.7 1.8-1.6c7.8-7.4 13.6-23.2 14-24.2l-22.6 12c-19.1-23.4-35.8-21.9-55.6-13-22.5 10-19.5 43.1-19.5 43.1-73.6-1.8-91.9-34.9-91.9-34.9C62.4 135.7 97 157.2 97 157.2c-5.4.1-19.7-6.1-19.7-6.1.8 19 15.5 32 28.6 39.6l5.7 3.2 1.7.9 1.7.8 7 3 1.1.4 2.5.8-.9.7-.7.3c-.3.2-.6.4-.9.4l-1.3.5c-1.5.5-3.1.7-4.7.8-8.6.3-17.2-.8-25.4-3.2 2.9 9.7 9.7 17.8 18.7 22.4l2.1 1.1 1.8.9 2.1.9c2.4.9 4.9 1.6 7.4 2.2l4.3.9 1.6.3h2.4l-2.4 1.7-2.5 1.7-4.9 2.9c-15.8 8.3-33.6 12-51.3 10.7l3.7 1.7c3.4 1.4 6.5 2.9 9.6 4.1l3.8 1.6 5.4 2 3.9 1.3c2.6 1.1 5.4 1.8 8 2.6l2.8.7 8.2 2 3.4.7 4.1.8 4.1.5 3.3.4c1.4 0 2.8.3 4.2.4 34.9 2.4 63.2-10.5 89.1-34.2 37.3-34 34.9-92.8 34.9-92.8 1-.4 1.9-1 2.8-1.6l1.6-1.3c6.1-6.2 11.6-12.9 16.5-20.1v-.3h-.2z" class="st0"/></symbol><symbol id="programs" viewBox="0 0 249.9 192.6"><circle cx="201.4" cy="19.1" r="19.1" fill="#323232"/><path fill="#323232" d="M78.9 19.1C95.4 14 120.4 7.9 120.4 7.9a58.9 58.9 0 0 1 24.5 5.6c11.9 5.9 33.8 17.1 33.8 17.1C185 35.2 189 41 190 44.4l7.8 26.5c0 6.7 6.6 9.4 13.4 8.3l24.6-4c19.3-2.3 16.5 10.6 4.9 13.5S199.3 98 199.3 98s-10.2 4.5-13.9-8.4-7.2-24.8-7.2-24.8 1-10.7-11.4-3.7-31.9 18.8-31.9 18.8-5.8 3.6-1.8 14.8 15.4 41.5 15.4 41.5 8.4 11.3-4.8 11.3H72.9c-16.1 0-16.7-20.9-2-20.8h38.3s12.5 4.3 4.6-12.7-14.1-31.4-14.1-31.4-7.9-9.6 5.1-18S139.3 43 139.3 43s13.4-5.8-.1-12-16.5-6.7-16.5-6.7a33.5 33.5 0 0 0-12.7 1c-6.6 1.9-25.7 6.5-25.7 6.5-12.3 2.9-13.1-10.4-5.4-12.7zm47.4 135.2l-44.2 35.5s-7.7 6.3-12.4 0l-4.6-6.2s-6.2-5.1 6.7-14.7 27.8-19.5 54.5-14.6z"/><rect width="108.2" height="6.12" y="47.1" fill="#323232" rx="2.7" ry="2.7"/><rect width="81.5" height="6.15" x="13.4" y="58.7" fill="#323232" rx="2.3" ry="2.3"/><rect width="70.5" height="6.15" x="20.1" y="70.6" fill="#323232" rx="2.1" ry="2.1"/></symbol><symbol id="personnel" viewBox="0 0 227.1 170.9"><g fill="#323232"><path d="M71.5 170.9c-6-.5-14.4-1.3-22.7-1.8a7.4 7.4 0 0 1-7.6-6.8 109.6 109.6 0 0 1-.6-24.3c1.5-9.3 13.7-13.7 22.3-9.3a22.5 22.5 0 0 0 21.9 0c9.4-4.7 21.4.5 22.7 10.8a96.9 96.9 0 0 1-.7 22.2 8.1 8.1 0 0 1-8.3 7.5h-.1c-1.6 0-3.3.6-4.9.7zm80.4 0c-6.2-.5-14.3-1.3-22.5-1.7a8.2 8.2 0 0 1-8.5-7.4 95.8 95.8 0 0 1-.8-22.7c1.3-10 13.4-15 22.4-10.4a23.6 23.6 0 0 0 22.6-.2c8.3-4.3 20.7.7 21.9 9.9a105.9 105.9 0 0 1-.5 23.2 7.8 7.8 0 0 1-8.2 7.5h-.1c-1.6 0-3.2.7-4.9.8zm45.4-79.2h-3.9c-7.2.7-13.2 0-17.4-7.8-2.4-4.1-8.3-6.7-13-9.1-2.4-1.4-3.7-2.3-3.8-5.2-.4-13.4 3.7-19.5 15.1-21.4a11.7 11.7 0 0 1 7.3 1.3 23.5 23.5 0 0 0 23.4.1c7.8-4.2 20 0 21.4 8.9s0 17.1-.5 25.7c-.3 4.1-3.8 5.7-7.7 6.1L197.1 92zm-166.8.4l-20.1-1.5c-5.4-.3-9-3-9.5-8.3a97.6 97.6 0 0 1-.6-21.6C1.7 50.3 13.5 45.2 23 50a22.9 22.9 0 0 0 22.4-.3c7.8-4.2 19.3.3 21.7 8.9a44.8 44.8 0 0 1 .9 12.7c0 1-1.4 2.5-2.5 2.9A30.3 30.3 0 0 0 48 88.7a6.9 6.9 0 0 1-4.7 2.9c-4.3.3-8.6 0-12.8 0zm83.3-.4h-3.3c-5.7.5-10-.6-13.5-6.6-2.7-4.5-8.4-7.5-13.4-10.2-3.1-1.7-4.4-2.9-4.3-6.5 0-12.5 4.2-18.3 15.4-20.2a11.1 11.1 0 0 1 7.1 1.3 23.7 23.7 0 0 0 23.5.1c7.5-3.9 18.6-.1 21.3 7.9a45.7 45.7 0 0 1 1.5 13.8c0 1-2.2 2.6-3.6 3.1a25.7 25.7 0 0 0-14.9 12.1 8.6 8.6 0 0 1-9.5 5.3 44.2 44.2 0 0 0-6.3-.1zM97.1 102a22.3 22.3 0 0 1-21.4 23.2h-1.8a23.1 23.1 0 0 1-23.5-22.8v-.4a23.8 23.8 0 0 1 23.5-23.5 23.3 23.3 0 0 1 23.2 23.1z"/><path d="M113.6 0a23.3 23.3 0 1 1-22.9 23.6v-.4A23.2 23.2 0 0 1 113.6 0zM34.3 0a22.8 22.8 0 0 1 22.8 22.9v.4a23.1 23.1 0 0 1-46.2 0A23 23 0 0 1 33.4 0zm182.5 23.2a23.1 23.1 0 1 1-46.2 0 23.1 23.1 0 0 1 46.2 0zm-86.1 78.5a23.1 23.1 0 1 1 22.7 23.6h-.2a23 23 0 0 1-22.5-23.4z"/></g></symbol><symbol id="instagram" viewBox="0 0 336 336"><style>.st0{fill:#231f20}</style><path d="M336 168.1c0 92.8-75.2 168.1-168.1 168.1C75.1 336.2-.2 261-.2 168.1S75.1 0 167.9 0h.1c92.8 0 168 75.2 168 167.9v.2zM261 130c-.8-5.1-1.4-10.4-2.6-15.4-4.7-21.8-23.6-37.7-45.9-38.6-1.8-.1-3.6-.4-5.4-.8h-78.2c-5.5.9-11.2 1.4-16.7 3-20.5 5.6-35.1 23.7-36.2 44.9-.1 1.9-.4 3.9-.8 5.8v78.2c.8 6.1 2 12.1 3.6 18.1 5.9 20 23.9 34.1 44.8 34.9 2.2.2 4.3.5 6.5.9h76.2c5.3-.8 10.7-1.4 15.8-2.6 21.6-5 37.1-23.8 38.1-45.9.1-2.1.4-4.3.9-6.3V130h-.1z" class="st0"/><path d="M165.3 137.2c-16.9.1-30.5 14-30.3 30.8.1 16.9 14 30.5 30.8 30.3s30.5-14 30.3-30.8c-.1-16.7-13.6-30.2-30.3-30.3h-.5z" class="st0"/><path d="M207.9 92.8c-27-.4-54.2-.4-81.2 0-19 .3-31.4 10.9-33.6 29.8-1.8 14.8-1.2 72.1-.8 85.7.5 21 14 34.7 34.9 34.9 26.9.5 53.8.5 80.7 0 20.7-.3 34.4-13.8 34.7-34.5.5-27 .5-54.2 0-81.2-.5-20.9-14-34.4-34.7-34.7zm-40.5 123c-26.4.1-47.9-21.3-48-47.7s21.3-47.9 47.7-48 47.9 21.3 48 47.7v.1c.1 26.4-21.2 47.8-47.6 47.8 0 .1 0 .1-.1.1zm49.4-86.1c-6.3-.2-11.2-5.3-11.2-11.6.1-6.3 5.3-11.2 11.6-11.1s11.2 5.3 11.1 11.6c-.1 6.2-5.3 11.2-11.5 11.1z" class="st0"/></symbol><symbol id="facility" viewBox="0 0 196.8 193.9"><path fill="#323232" d="M59.2 132.2l-31.5-35c-6.9-7.6-15.5-8.4-22.3-2.4s-7.2 15.2-.2 23.1l62.5 69.5c7 7.8 16 8.6 22.9 2.2s6.8-14.8 0-22.4c-10.4-11.7-20.9-23.3-31.4-35zm133-55.5q-31.6-35.4-63.5-70.6c-6.7-7.4-15.7-8-22.4-2s-7 14.8-.3 22.4l31.5 35.1 32 35.5c6.6 7.2 15.1 7.9 21.8 2s7.4-15.1.9-22.4zM55.7 115.4l19.8 22 65.4-58.8c-6.9-7.5-13.3-14.8-19.8-22zM5.5 151.1c-6.2 4.8-7.1 8.6-2.6 13.9s11.4 13.1 17.4 19.4 9.1 4.8 14.5-.6c9.9 7.5 14.5 8.1 20.6 2.8L4.3 129.7c-5.6 7-5.4 11.3 1.2 21.4zM191.3 42.6c6.2-4.5 7.1-8.4 2.6-13.7s-11.4-13.1-17.4-19.4-8.9-4.9-14.7.6c-6-5-12.4-9.1-21.1-3.6l52.1 57.9c6.4-8.1 2.8-15-1.5-21.8z"/></symbol><symbol id="facebook" viewBox="0 0 336 336"><style>.st0{fill:#231f20}</style><path d="M336 167.9c0 92.8-75.2 168.1-168.1 168.1h-3.6C71.6 334.1-2.1 257.3-.2 164.5S78.6-2 171.4-.1c88.2 1.8 160 71.6 164.4 159.7.2 2.7.2 5.6.2 8.3zm-136.9-70h23.4V64.2h-33.4c-33.7 0-43.3 27-43.3 44v31.7h-32.5v38.2h32.5v93.6h38.3v-93.6H216l4.9-38.3h-36.7v-27.1c-.1-8 6.2-14.6 14.2-14.7h.1l.6-.1z" class="st0"/></symbol><symbol id="clothing" viewBox="0 0 254.5 183.1"><path fill="#323232" d="M254.4 153.8a34 34 0 0 0-.7-3.4 22.7 22.7 0 0 0-10.6-13.3l-33.7-20-72.7-43.2c-.4-.2-.5-.4-.5-.9V62.8a15.7 15.7 0 0 0-2.4-8.4c-2.5-4.2-6.3-7-10.7-9.2a14.2 14.2 0 0 1-3.8-2.6c-3.5-3.2-4.6-7.3-4.3-11.9a12.9 12.9 0 0 1 2.9-7.8 14.5 14.5 0 0 1 14.4-4.9 13.4 13.4 0 0 1 11.3 12.6 12.8 12.8 0 0 0 1.3 5 7.3 7.3 0 0 0 8.9 4.1 10 10 0 0 0 7.1-9.3 27.1 27.1 0 0 0-2.2-10.5 31.1 31.1 0 0 0-16-16.9A34.3 34.3 0 0 0 124.6.2a29.1 29.1 0 0 0-14.7 6.1 34.9 34.9 0 0 0-9.6 13.2A31.4 31.4 0 0 0 97.5 30a26.3 26.3 0 0 0 .4 7.9 28.8 28.8 0 0 0 6.8 14.4 46.1 46.1 0 0 0 7.7 6.3 49.1 49.1 0 0 1 5.1 3.9 6.2 6.2 0 0 1 2.1 4.9 50.4 50.4 0 0 0 0 5.5 1.2 1.2 0 0 1-.7 1.1l-27 15.9-80.6 47.6a19.6 19.6 0 0 0-5.4 4.5C.7 148.4-.9 155.8.5 163.8c1.7 9.5 9.8 17.4 20.4 18.9l3.2.4h205.4l2.5-.2c6.5-.8 12.2-3.1 16.6-8.1a22.3 22.3 0 0 0 5.4-11.1 25.6 25.6 0 0 0 .5-2.7v-7.2zm-21.5 9.8a7.9 7.9 0 0 1-4.4 1.6H25.8a7.5 7.5 0 0 1-7.5-7.1 6.3 6.3 0 0 1 3.5-6.2l17.8-10.4 42.1-24.8 44.9-26.4a1.1 1.1 0 0 1 1.2 0l79.5 46.8 24.6 14.4a7.2 7.2 0 0 1 1 12.1z"/><path fill="#323232" d="M229.5 183.1l2.5-.2c6.5-.8 12.2-3.1 16.6-8.1a22.3 22.3 0 0 0 5.4-11.1 25.6 25.6 0 0 0 .5-2.7"/></symbol><symbol id="cart" viewBox="0 0 250.2 196.5"><path fill="none" stroke="#fff" stroke-miterlimit="10" stroke-width="1.9" d="M235.2 12.9h-24.3l-42.8 122.7H47.8l-30.7-91h151.8m-8.8 30.6H26.6m121.7 29.9H35.8"/><path fill="none" stroke="#fff" stroke-linecap="round" stroke-linejoin="round" stroke-width="13.29" d="M235.2 12.9h-24.3l-42.8 122.7H47.8l-30.7-91h151.8m-8.8 30.6H26.6m121.7 29.9H35.8"/><circle cx="148.3" cy="174.3" r="17.7" fill="#fff"/><circle cx="68" cy="174.3" r="17.7" fill="#fff"/></symbol></svg>