<svg xmlns="http://www.w3.org/2000/svg" id="Layer_1" viewBox="0 0 336 336" width="336" height="336"><style>.st0{fill:#231f20}</style><path d="M336 168.1c0 92.8-75.2 168.1-168.1 168.1C75.1 336.2-.2 261-.2 168.1S75.1 0 167.9 0h.1c92.8 0 168 75.2 168 167.9v.2zM261 130c-.8-5.1-1.4-10.4-2.6-15.4-4.7-21.8-23.6-37.7-45.9-38.6-1.8-.1-3.6-.4-5.4-.8h-78.2c-5.5.9-11.2 1.4-16.7 3-20.5 5.6-35.1 23.7-36.2 44.9-.1 1.9-.4 3.9-.8 5.8v78.2c.8 6.1 2 12.1 3.6 18.1 5.9 20 23.9 34.1 44.8 34.9 2.2.2 4.3.5 6.5.9h76.2c5.3-.8 10.7-1.4 15.8-2.6 21.6-5 37.1-23.8 38.1-45.9.1-2.1.4-4.3.9-6.3V130h-.1z" class="st0"/><path d="M165.3 137.2c-16.9.1-30.5 14-30.3 30.8.1 16.9 14 30.5 30.8 30.3s30.5-14 30.3-30.8c-.1-16.7-13.6-30.2-30.3-30.3h-.5z" class="st0"/><path d="M207.9 92.8c-27-.4-54.2-.4-81.2 0-19 .3-31.4 10.9-33.6 29.8-1.8 14.8-1.2 72.1-.8 85.7.5 21 14 34.7 34.9 34.9 26.9.5 53.8.5 80.7 0 20.7-.3 34.4-13.8 34.7-34.5.5-27 .5-54.2 0-81.2-.5-20.9-14-34.4-34.7-34.7zm-40.5 123c-26.4.1-47.9-21.3-48-47.7s21.3-47.9 47.7-48 47.9 21.3 48 47.7v.1c.1 26.4-21.2 47.8-47.6 47.8 0 .1 0 .1-.1.1zm49.4-86.1c-6.3-.2-11.2-5.3-11.2-11.6.1-6.3 5.3-11.2 11.6-11.1s11.2 5.3 11.1 11.6c-.1 6.2-5.3 11.2-11.5 11.1z" class="st0"/></svg>