<svg xmlns="http://www.w3.org/2000/svg" width="3.2in" height="2.4in" viewBox="0 0 227.1 170.9"><g fill="#323232"><path d="M71.5 170.9c-6-.5-14.4-1.3-22.7-1.8a7.4 7.4 0 0 1-7.6-6.8 109.6 109.6 0 0 1-.6-24.3c1.5-9.3 13.7-13.7 22.3-9.3a22.5 22.5 0 0 0 21.9 0c9.4-4.7 21.4.5 22.7 10.8a96.9 96.9 0 0 1-.7 22.2 8.1 8.1 0 0 1-8.3 7.5h-.1c-1.6 0-3.3.6-4.9.7zm80.4 0c-6.2-.5-14.3-1.3-22.5-1.7a8.2 8.2 0 0 1-8.5-7.4 95.8 95.8 0 0 1-.8-22.7c1.3-10 13.4-15 22.4-10.4a23.6 23.6 0 0 0 22.6-.2c8.3-4.3 20.7.7 21.9 9.9a105.9 105.9 0 0 1-.5 23.2 7.8 7.8 0 0 1-8.2 7.5h-.1c-1.6 0-3.2.7-4.9.8zm45.4-79.2h-3.9c-7.2.7-13.2 0-17.4-7.8-2.4-4.1-8.3-6.7-13-9.1-2.4-1.4-3.7-2.3-3.8-5.2-.4-13.4 3.7-19.5 15.1-21.4a11.7 11.7 0 0 1 7.3 1.3 23.5 23.5 0 0 0 23.4.1c7.8-4.2 20 0 21.4 8.9s0 17.1-.5 25.7c-.3 4.1-3.8 5.7-7.7 6.1L197.1 92zm-166.8.4l-20.1-1.5c-5.4-.3-9-3-9.5-8.3a97.6 97.6 0 0 1-.6-21.6C1.7 50.3 13.5 45.2 23 50a22.9 22.9 0 0 0 22.4-.3c7.8-4.2 19.3.3 21.7 8.9a44.8 44.8 0 0 1 .9 12.7c0 1-1.4 2.5-2.5 2.9A30.3 30.3 0 0 0 48 88.7a6.9 6.9 0 0 1-4.7 2.9c-4.3.3-8.6 0-12.8 0zm83.3-.4h-3.3c-5.7.5-10-.6-13.5-6.6-2.7-4.5-8.4-7.5-13.4-10.2-3.1-1.7-4.4-2.9-4.3-6.5 0-12.5 4.2-18.3 15.4-20.2a11.1 11.1 0 0 1 7.1 1.3 23.7 23.7 0 0 0 23.5.1c7.5-3.9 18.6-.1 21.3 7.9a45.7 45.7 0 0 1 1.5 13.8c0 1-2.2 2.6-3.6 3.1a25.7 25.7 0 0 0-14.9 12.1 8.6 8.6 0 0 1-9.5 5.3 44.2 44.2 0 0 0-6.3-.1zM97.1 102a22.3 22.3 0 0 1-21.4 23.2h-1.8a23.1 23.1 0 0 1-23.5-22.8v-.4a23.8 23.8 0 0 1 23.5-23.5 23.3 23.3 0 0 1 23.2 23.1z"/><path d="M113.6 0a23.3 23.3 0 1 1-22.9 23.6v-.4A23.2 23.2 0 0 1 113.6 0zM34.3 0a22.8 22.8 0 0 1 22.8 22.9v.4a23.1 23.1 0 0 1-46.2 0A23 23 0 0 1 33.4 0zm182.5 23.2a23.1 23.1 0 1 1-46.2 0 23.1 23.1 0 0 1 46.2 0zm-86.1 78.5a23.1 23.1 0 1 1 22.7 23.6h-.2a23 23 0 0 1-22.5-23.4z"/></g></svg>