<svg xmlns="http://www.w3.org/2000/svg" width="336" height="2.7in" viewBox="0 0 249.9 192.6"><circle cx="201.4" cy="19.1" r="19.1" fill="#323232"/><path fill="#323232" d="M78.9 19.1C95.4 14 120.4 7.9 120.4 7.9a58.9 58.9 0 0 1 24.5 5.6c11.9 5.9 33.8 17.1 33.8 17.1C185 35.2 189 41 190 44.4l7.8 26.5c0 6.7 6.6 9.4 13.4 8.3l24.6-4c19.3-2.3 16.5 10.6 4.9 13.5S199.3 98 199.3 98s-10.2 4.5-13.9-8.4-7.2-24.8-7.2-24.8 1-10.7-11.4-3.7-31.9 18.8-31.9 18.8-5.8 3.6-1.8 14.8 15.4 41.5 15.4 41.5 8.4 11.3-4.8 11.3H72.9c-16.1 0-16.7-20.9-2-20.8h38.3s12.5 4.3 4.6-12.7-14.1-31.4-14.1-31.4-7.9-9.6 5.1-18S139.3 43 139.3 43s13.4-5.8-.1-12-16.5-6.7-16.5-6.7a33.5 33.5 0 0 0-12.7 1c-6.6 1.9-25.7 6.5-25.7 6.5-12.3 2.9-13.1-10.4-5.4-12.7zm47.4 135.2l-44.2 35.5s-7.7 6.3-12.4 0l-4.6-6.2s-6.2-5.1 6.7-14.7 27.8-19.5 54.5-14.6z"/><rect width="108.2" height="6.12" y="47.1" fill="#323232" rx="2.7" ry="2.7"/><rect width="81.5" height="6.15" x="13.4" y="58.7" fill="#323232" rx="2.3" ry="2.3"/><rect width="70.5" height="6.15" x="20.1" y="70.6" fill="#323232" rx="2.1" ry="2.1"/></svg>