<svg xmlns="http://www.w3.org/2000/svg" id="Layer_1" viewBox="0 0 336 336" width="336" height="336"><style>.st0{fill:#231f20}</style><path d="M336 168c0 92.8-75.2 168-168 168h-3.6C71.7 334-1.9 257.2.1 164.4S78.9-1.9 171.7.1C259.8 2 331.5 71.7 335.9 159.7c.1 2.6.1 5.5.1 8.3zm-55.8-54.5l-25.5 8.3 1.7-.9 1.1-.7 1.8-1.6c7.8-7.4 13.6-23.2 14-24.2l-22.6 12c-19.1-23.4-35.8-21.9-55.6-13-22.5 10-19.5 43.1-19.5 43.1-73.6-1.8-91.9-34.9-91.9-34.9C62.4 135.7 97 157.2 97 157.2c-5.4.1-19.7-6.1-19.7-6.1.8 19 15.5 32 28.6 39.6l5.7 3.2 1.7.9 1.7.8 7 3 1.1.4 2.5.8-.9.7-.7.3c-.3.2-.6.4-.9.4l-1.3.5c-1.5.5-3.1.7-4.7.8-8.6.3-17.2-.8-25.4-3.2 2.9 9.7 9.7 17.8 18.7 22.4l2.1 1.1 1.8.9 2.1.9c2.4.9 4.9 1.6 7.4 2.2l4.3.9 1.6.3h2.4l-2.4 1.7-2.5 1.7-4.9 2.9c-15.8 8.3-33.6 12-51.3 10.7l3.7 1.7c3.4 1.4 6.5 2.9 9.6 4.1l3.8 1.6 5.4 2 3.9 1.3c2.6 1.1 5.4 1.8 8 2.6l2.8.7 8.2 2 3.4.7 4.1.8 4.1.5 3.3.4c1.4 0 2.8.3 4.2.4 34.9 2.4 63.2-10.5 89.1-34.2 37.3-34 34.9-92.8 34.9-92.8 1-.4 1.9-1 2.8-1.6l1.6-1.3c6.1-6.2 11.6-12.9 16.5-20.1v-.3h-.2z" class="st0"/></svg>